<?xml version="1.0" encoding="UTF-8"?>
<svg width="410" height="430" version="1.1" xmlns="http://www.w3.org/2000/svg">
 <g transform="matrix(1.0056 0 0 1.0005 -.94271 -.21757)" fill-rule="evenodd">
  <path d="m203.5 0.21875c-67.893 0.45377-127.98 35.956-164.72 90.188h332.03c-36.98-54.582-97.567-90.188-166-90.188-0.43957 0-0.87358-0.0029336-1.3125 0z" fill="#608ab4"/>
  <path d="m27 110c-16.582 31.083-26.062 66.917-26.062 105.09 0 118.62 91.345 214.91 203.88 214.91 112.53 0 203.84-96.286 203.84-214.91 0-38.177-9.4491-74.011-26.031-105.09h-355.62z" fill="#375493"/>
  <path d="m38.781 90.406c-4.258 6.2848-8.1735 12.831-11.781 19.594h355.62c-3.6078-6.7627-7.5545-13.309-11.812-19.594h-332.03z" fill="#d6dde3"/>
  <path d="m291.88 24.312c-0.84643 0.014371-1.7554 0.20408-2.7188 0.5-9.0817 14.57-9.0534 62.841-8.9375 73.281 0.01917 0.004364 0.04333-0.004374 0.0625 0 13.444 2.9972 31.244-0.44435 31.844-13.375 1.0276-17.041 2.054-33.569-6.9375-44.188-8.2208 3.7679-6.6603-11.481-10-14.906-0.83325-0.95736-1.9931-1.3349-3.3125-1.3125z" fill="#7bbce5"/>
  <path d="m289.16 24.812c-4.7884 1.4709-10.617 5.8367-13.5 7.25-2.5066 0.26912-7.1574 0.074143-10.625 0.96875-7.455 1.9233-14.24 6.4985-18.156 13.688-5.0576-14.762-15.911 3.3916-28.781 13.844-7.129-5.3949-21.49-16.157-34.656-23.094-10.59 5.3949-21.689 23.615-28.281 25.156-6.8507 1.2845-16.506 0.52514-20.531 5.4062-6.6794 6.9363-8.7468 14.894-10.031 22.344 15.671 5.5662 32.11 5.7346 47.781 3.5938 8.9059-2.1408 15.243 0.87378 24.406 0.53125 27.81 1.198 57.931-2.2111 83.438 3.5938-0.1159-10.441-0.14418-58.712 8.9375-73.281z" fill="#fff"/>
  <path d="m196.27 53.898c3.3447 10.105 6.2447 20.209 5.138 30.314-1.1989 6.2512 1.4558 5.8231 6.4225 3.3397 4.8811-2.6546 7.4501-5.5662 14.643-7.9639 5.5662-1.5414 1.627-5.6518-1.0276-8.4777-7.9386-7.5514-16.572-12.324-25.176-17.212z" fill="#7bbce5"/>
  <path d="m224.81 110c5.8512 77.793 58.104 87.35 91 71.625-16.448-16.265-10.482-49.416 7.0625-49.781 32.452-0.78967 23.212 59.826 23.219 89.25 17.742-3.608 16.58-70.739 12.812-111.09h-134.09z" fill="#294584"/>
  <path d="m56.75 110c0.63779 6.6968 1.2685 13.397 1.9062 20.094 4.2923 7.8586 7.484 15.704 6.5938 23.562 8.4792-2.0895 13.532-3.1825 18.094 5.5 19.953 12.423 38.906 13.905 57.562 12.062 3.793 45.141 2.6868 81.452 1.0938 135.41 11.331 18.824 22.669 36.676 34 55.5 6.507 11.444 17.92 15.058 26.875 1.5312 7.6758-3.4724 15.324-6.9339 23-10.406v11.5c11.788 2.9662 23.448 7.4783 18.094 19.75-4.0744 7.9251-1.7814 11.451 9.8125 6.1562 10.241-4.9882 16.561 2.748 21.906 4.125-7.6201-8.1155-1.0625-24.091-0.8221-40.591 10.934-0.99882 23.419-10.91 34.353-11.909 22.482-21.82 26.354-29.939 26.312-58.125 2.2586-7.3103 5.5023-9.2412 3.8438-21.938 1.2793-7.8586 3.0644-18.141 4.3438-26 0.87631-5.1436 1.7196-10.179 2.5625-15.156-0.0609 0.01399-0.12615 0.01877-0.1875 0.03125-0.00685-29.424 9.233-90.04-23.219-89.25-17.545 0.36552-23.511 33.516-7.0625 49.781-3.8132 1.8228-7.894 3.33-12.125 4.4062 1.3338 7.6713-4.208 15.543-11.469 15.875-7.2448-0.64799-17.901 6.542-24.656 23.031-10.796 22.771-20.621 2.9608-24.562-3.1562-5.0586-6.7171 1.1533-12.961-12.719-8.9062-9.1447 2.8274-20.752 4.6952-23.531-9.125-11.696-11.879-22.897-22.308-34.594-34.188-4.6699-5.5582-0.78034-10.134-0.75-12.094-1.4e-4 -0.04146 9.2e-4 -0.1093 0-0.15625-4.7e-4 -0.00721 8.6e-4 -0.02488 0-0.03125-0.00589-0.02202-0.02434-0.07234-0.03125-0.09375-0.00646-0.02366-0.02289-0.0712-0.03125-0.09375-0.01502-0.03696-0.04185-0.09116-0.0625-0.125-0.00517-0.01097-0.02585-0.05166-0.03125-0.0625-0.00826-0.00823-0.02726-0.02664-0.03125-0.03125-0.01949-0.02103-0.06717-0.06956-0.09375-0.09375-0.02993-0.02347-0.08288-0.06635-0.125-0.09375-0.0167-0.01024-0.04721-0.02346-0.0625-0.03125-0.0541-0.0259-0.12293-0.0414-0.1875-0.0625-4.5621-2.8792-10.094 0.58695-16.125 3.0938-15.743 2.8906-21.891 0.10867-23.594-8.2188 0.09286-13.755-7.6436-12.32-20.281-10.406-36.428 5.1899-42.319-7.7036-52.938-31.062h-1.0625z" fill="#e0e9ea"/>
  <path d="m57.812 110c10.619 23.359 16.51 36.252 52.938 31.062 12.638-1.9136 20.374-3.3485 20.281 10.406 1.7029 8.3274 7.8504 11.109 23.594 8.2188 6.031-2.5068 11.563-5.9729 16.125-3.0938 0.06457 0.0211 0.1334 0.0366 0.1875 0.0625 0.01529 0.00779 0.0458 0.02101 0.0625 0.03125 0.04212 0.0274 0.09507 0.07028 0.125 0.09375 0.02658 0.02419 0.07426 0.07272 0.09375 0.09375 0.00399 0.00461 0.02299 0.02302 0.03125 0.03125 0.0054 0.01084 0.02608 0.05153 0.03125 0.0625 0.02065 0.03384 0.04748 0.08804 0.0625 0.125 0.00836 0.02255 0.02479 0.07009 0.03125 0.09375 0.00691 0.02141 0.02536 0.07173 0.03125 0.09375 8.6e-4 0.00637-4.7e-4 0.02404 0 0.03125 9.2e-4 0.04695-1.4e-4 0.11479 0 0.15625-0.03034 1.9597-3.9199 6.5355 0.75 12.094 11.696 11.879 22.897 22.308 34.594 34.188 2.7795 13.82 14.387 11.952 23.531 9.125 13.872-4.0549 7.6602 2.1892 12.719 8.9062 3.9415 6.117 13.766 25.928 24.562 3.1562 6.7552-16.489 17.411-23.679 24.656-23.031 7.2608-0.33207 12.803-8.2037 11.469-15.875-32.269 8.2084-73.702-7.2558-78.875-76.031h-167z" fill="#4d8ac0"/>
  <path d="m166.94 199.38c-10.498 0.68491-5.0262 35.786-3.875 52.406 1.5554 16.361 5.2025 12.507 16.625 5.375 5.2526 10.653 2.0587 16.606-5.375 23.5-5.5345 5.2301-8.7088 13.042-3.9062 22.031 1.4689 2.4482 2.7024 3.486 4.4062 7.3438 1.1425 2.285 2.2638 4.59 3.4062 6.875 1.3181 5.0522-0.16914 8.2034-2.375 10.906-2.0427 2.9254-2.4372 5.8748 0.21875 13.969 1.4491 4.701-2.5228 10.314 3.625 15.25 2.7244 2.1163 5.3931 3.6997 8.125 4.875-2.3704-6.8995-2.4405-16.857-1.2812-25.406 0.7831-8.066 1.3263-13.081 8.6875-18.562 6.4215-3.289 4.6393-20.663 5.1875-31 0.06316 0.05528 0.15277 0.10501 0.21875 0.15625-0.00827-0.04593 0.00765-0.11024 0-0.15625 13.736-2.9005 6.0885-13.887 1.875-24.438l-33.594-62.875c-0.66383-0.18427-1.2749-0.27218-1.8438-0.25-0.04166 0.00162-0.08383-0.00269-0.125 0z" fill="#d6dde3"/>
  <path d="m168.91 199.62 33.594 62.875c4.2135 10.55 11.861 21.537-1.875 24.438 1.2244 7.3612 10.329 13.768 20.438 12.906 10.515-0.6776 18.161 7.184 21.625 15.125 0.45746-8.757 1.5255-17.446 3.6562-26.031 1.3576-4.2435 9.0514-8.0032 2.6562-13.656-25.899-28.515-50.862-50.932-78.875-75.219-0.42571-0.18465-0.82773-0.32896-1.2188-0.4375z" fill="#608ab4"/>
  <path d="m200.41 286.94c-0.54818 10.337 1.234 27.711-5.1875 31-7.3612 5.4818-7.9044 10.496-8.6875 18.562-1.1608 8.5611-1.0986 18.537 1.2812 25.438 2.4296 1.0384 4.9189 1.7421 7.5625 2.1875 4.4463 0.39814 7.2452 1.4975 16.625-0.21875 8.2126-0.9471 13.144-4.958 22.531-6.375 5.1239-1.0064 8.592-2.9618 8.3125-10.781-0.39106-10.679-0.7069-21.281-0.15625-31.781-3.4635-7.941-11.11-15.803-21.625-15.125-9.9904 0.85133-19.015-5.4043-20.406-12.656-0.00275-0.01433 0.00269-0.01691 0-0.03125-0.0051-0.00441 0.00509-0.02682 0-0.03125-0.07634-0.06645-0.17505-0.11714-0.25-0.1875z" fill="#236798"/>
  <path d="m338.47 276.53c-0.86265 2.3922-1.9811 4.5295-2.9375 7.625 0.04108 28.186-3.8303 36.304-26.312 58.125-0.20231 0.05072-6.6309 15.126-12.094 19.062-9.215 6.8124-8.6397 12.99-12.062 20.438-2.4771 3.7646-5.8979 4.3711-8.375 3.6875-1.5466-1.221-3.1096-1.7998-4.6562-3.6562-0.09775 3.0456 0.11447 5.8188 0.90625 8.25 0.03549 0.07192 0.05839 0.14683 0.09375 0.21875 0.00329 0.00961-0.00331 0.02165 0 0.03125 0.43389 0.88276 0.84072 1.7735 1.25 2.6562 0.02237 0.03588 0.03974 0.0581 0.0625 0.09375 0.00391 0.00846-0.00391 0.02279 0 0.03125 0.37182 0.5792 0.8005 1.1386 1.2812 1.6562-0.14636-0.039-0.2896-0.07699-0.4375-0.125 9.4385 15.092 22.768 19.813 39.875 13.875 9.2112-4.0176 14.596-7.6959 20.312-12.031 4.9722-4.7163 10.888-13.57 1.5625-14.156-1.3287-0.35167-2.0685-0.69578-2.4375-1.0625-0.01339-0.01388-0.05015-0.04853-0.0625-0.0625-0.03551-0.04203-0.06711-0.11334-0.09375-0.15625-0.03783-0.0646-0.07393-0.15178-0.09375-0.21875-0.00399-0.01495-0.02808-0.04742-0.03125-0.0625-0.00416-0.02272 0.00241-0.07072 0-0.09375-0.00185-0.02314 2.1e-4 -0.07027 0-0.09375 0.01852-1.3446 2.5774-3.2626 0.625-7.1562-1.3356-5.9556 4.3405-11.586 8.4062-13.094-2.7948-6.1137-5.6114-12.23-8.4062-18.344 0.19315-4.0145 8.0907-6.1337 6.8125-13.625 2.2795-18.844 5.3692-46.815-3.1875-51.812z" fill="#608ab4"/>
  <path d="m288.03 202.31c-6.755 1.8178-14.927 9.0986-20.469 22.625-2.5304 5.3371-5.0146 8.3354-7.375 9.7188 0.23656 23.249 5.7596 39.801 17.188 48.875-3.3891 13.45-6.7678 31.992-0.625 43.219-10.379-3.2832-6.1474 17.584-9.2188 26.375-5.1896 14.616-9.7532 13.979-14.625 15.25 4.4482 5.0837 10.171 10.479 18.75 13.656 0.00149 0.0166-0.00308 0.04586 0 0.0625 0.01737 0.07498 0.07804 0.17412 0.125 0.25 0.63926 0.97085 3.5167 2.028 4.9062 3.125 2.4771 0.68363 5.8979 0.07707 8.375-3.6875 3.4228-7.4479 2.8475-13.625 12.062-20.438 5.3354-3.8447 11.616-18.342 12.094-19.062-18.234-10.248-26.853-29.777-23.906-48.594 0.84727-5.1896 4.2416-11.008-0.3125-19.375-5.4458-22.993-1.9776-49.745 3.0312-72z" fill="#236798"/>
 </g>
</svg>
